<?xml version="1.0" encoding="utf-8"?>
<!-- Generator: Adobe Illustrator 26.0.2, SVG Export Plug-In . SVG Version: 6.00 Build 0)  -->
<svg version="1.1" id="Layer_1" xmlns="http://www.w3.org/2000/svg" xmlns:xlink="http://www.w3.org/1999/xlink" x="0px" y="0px"
	 viewBox="0 0 50 49.6" style="enable-background:new 0 0 50 49.6;" xml:space="preserve">
<style type="text/css">
	.st0{fill:#FCFCFC;}
</style>
<g>
	<path class="st0" d="M44.9,4.8H40V1.3C40,0.6,39.4,0,38.7,0c-0.7,0-1.3,0.6-1.3,1.3v3.4H12.6V1.3C12.6,0.6,12,0,11.3,0
		C10.6,0,10,0.6,10,1.3v3.4H5.1C2.3,4.8,0,7.1,0,9.9v34.6c0,2.8,2.3,5.1,5.1,5.1l39.8,0c2.8,0,5.1-2.3,5.1-5.1V9.9
		C50,7.1,47.7,4.8,44.9,4.8L44.9,4.8z M47.4,44.5c0,1.4-1.1,2.5-2.5,2.5l-39.8,0c-1.4,0-2.5-1.1-2.5-2.5V19.6h44.7L47.4,44.5
		L47.4,44.5z M47.4,16.9l-44.7,0V9.9c0-1.4,1.1-2.5,2.5-2.5h4.4c-1,0.6-1.7,1.7-1.7,3c0,1.9,1.6,3.5,3.5,3.5c1.9,0,3.5-1.6,3.5-3.5
		c0-1.3-0.7-2.4-1.7-3h23.8c-1,0.6-1.7,1.7-1.7,3c0,1.9,1.6,3.5,3.5,3.5c1.9,0,3.5-1.6,3.5-3.5c0-1.3-0.7-2.4-1.7-3h4.4
		c1.4,0,2.5,1.1,2.5,2.5L47.4,16.9L47.4,16.9z"/>
	<path class="st0" d="M21.5,41c0.2,0.3,0.6,0.5,1,0.5h0c0.4,0,0.8-0.2,1-0.5l11-14.9c0.4-0.6,0.3-1.4-0.3-1.8
		c-0.6-0.4-1.4-0.3-1.8,0.3L22.5,38l-5-6.1c-0.5-0.6-1.3-0.7-1.9-0.2c-0.6,0.5-0.7,1.3-0.2,1.9L21.5,41L21.5,41z"/>
</g>
</svg>
