<?xml version="1.0" encoding="utf-8"?>
<!-- Generator: Adobe Illustrator 26.0.2, SVG Export Plug-In . SVG Version: 6.00 Build 0)  -->
<svg version="1.1" id="Livello_1" xmlns="http://www.w3.org/2000/svg" xmlns:xlink="http://www.w3.org/1999/xlink" x="0px" y="0px"
	 viewBox="0 0 50 50" style="enable-background:new 0 0 50 50;" xml:space="preserve">
<style type="text/css">
	.st0{fill:#FFFFFF;}
</style>
<g>
	<circle class="st0" cx="38.3" cy="11.7" r="3"/>
	<path class="st0" d="M49.9,14.7c-0.1-2.6-0.5-4.5-1.2-6c-0.6-1.6-1.5-3.1-2.9-4.4C44.4,2.9,43,2,41.4,1.3c-1.6-0.7-3.4-1.1-6.1-1.2
		C32.6,0,31.8,0,25,0s-7.6,0-10.3,0.1s-4.5,0.5-6,1.2C7,1.9,5.6,2.8,4.2,4.2C2.9,5.5,2,7,1.3,8.6c-0.6,1.6-1,3.4-1.2,6
		C0,17.4,0,18.2,0,25s0,7.7,0.1,10.3c0.1,2.7,0.5,4.5,1.2,6.1s1.5,3.1,2.9,4.4c1.4,1.4,2.8,2.2,4.4,2.9c1.6,0.6,3.4,1,6,1.2
		S18.2,50,25,50s7.7,0,10.3-0.1c2.6-0.1,4.5-0.5,6-1.2c1.6-0.6,3.1-1.5,4.4-2.9c1.4-1.4,2.2-2.8,2.9-4.4c0.6-1.6,1-3.4,1.2-6
		c0.1-2.6,0.1-3.5,0.1-10.3S50,17.4,49.9,14.7z M45.3,35.1c-0.1,2.4-0.5,3.7-0.9,4.6c-0.5,1.2-1,2-1.9,2.9s-1.7,1.4-2.9,1.9
		c-0.9,0.3-2.2,0.7-4.6,0.9c-2.6,0.1-3.5,0.1-10.1,0.1s-7.5,0-10.1-0.1c-2.4-0.1-3.7-0.5-4.6-0.9c-1.2-0.5-2-1-2.9-1.9
		s-1.4-1.7-1.9-2.9c-0.3-0.9-0.7-2.2-0.9-4.6C4.4,32.4,4.4,31.6,4.4,25s0-7.5,0.1-10.1c0.1-2.4,0.5-3.7,0.9-4.6c0.5-1.2,1-2,1.9-2.9
		C8.2,6.5,9.1,6,10.2,5.5c0.9-0.3,2.2-0.7,4.7-0.8c2.6-0.1,3.5-0.1,10.1-0.1s7.5,0,10.1,0.1c2.4,0.1,3.7,0.5,4.6,0.9
		c1.2,0.5,2,1,2.9,1.9c0.9,0.9,1.4,1.7,1.9,2.9c0.3,0.9,0.7,2.2,0.9,4.6c0.1,2.6,0.1,3.5,0.1,10.1C45.5,31.7,45.5,32.5,45.3,35.1z"
		/>
	<g>
		<path class="st0" d="M25,15.5L25,15.5c4.4,0,8.1,3,9.2,7.3c0.6,2.4,0.1,5-1.2,7.1c-1.4,2.2-3.4,3.7-5.8,4.2
			c-0.7,0.1-1.4,0.3-2.2,0.3c-4.4,0-8.1-3-9.2-7.3c-0.6-2.4-0.1-5,1.2-7.1s3.4-3.7,5.8-4.2C23.5,15.6,24.2,15.5,25,15.5 M25,12.1
			c-1,0-2,0.1-3,0.3C15.1,14.1,10.8,21,12.5,28c1.4,5.9,6.7,9.9,12.5,9.9c1,0,2-0.1,3-0.3c6.9-1.6,11.1-8.6,9.6-15.4
			C36,16.1,30.8,12.1,25,12.1L25,12.1z"/>
	</g>
</g>
</svg>
