<?xml version="1.0" encoding="utf-8"?>
<!-- Generator: Adobe Illustrator 26.0.2, SVG Export Plug-In . SVG Version: 6.00 Build 0)  -->
<svg version="1.1" id="Layer_1" xmlns="http://www.w3.org/2000/svg" xmlns:xlink="http://www.w3.org/1999/xlink" x="0px" y="0px"
	 viewBox="0 0 50 50" style="enable-background:new 0 0 50 50;" xml:space="preserve">
<style type="text/css">
	.st0{fill:#FCFCFC;}
</style>
<g>
	<path class="st0" d="M23.2,7.4c1.4,4.5-0.3,9-3.7,10c-3.4,1.1-7.4-1.7-8.7-6.2c-1.4-4.5,0.3-9,3.7-10S21.8,2.9,23.2,7.4L23.2,7.4z
		 M3.7,13.6c-3,0.9-4.4,4.7-3.3,8.4c1.2,3.8,4.5,6,7.5,5.1c3-0.9,4.4-4.7,3.3-8.4C10,15,6.6,12.7,3.7,13.6L3.7,13.6z M26.7,7.4
		c-1.4,4.5,0.3,9,3.7,10c3.4,1.1,7.4-1.7,8.7-6.2c1.4-4.5-0.3-9-3.7-10S28.1,2.9,26.7,7.4L26.7,7.4z M38.8,18.7
		c-1.2,3.7,0.3,7.5,3.3,8.4c3,0.9,6.3-1.4,7.5-5.1c1.1-3.7-0.3-7.5-3.3-8.4S40,15,38.8,18.7L38.8,18.7z M31.9,25.9
		c-2.5-2.4-3.4-5.3-6-6.4l0,0c-0.6-0.2-1.2-0.4-1.9-0.4c-0.6,0.1-1.2,0.2-1.8,0.4c-2.6,1.1-3.5,4.1-6,6.4C12.9,29.1,3,32.8,7.7,42.1
		c4.8,9.3,28,9.3,32.7,0C45.2,32.8,35.3,29.1,31.9,25.9L31.9,25.9z"/>
</g>
</svg>
