<?xml version="1.0" encoding="utf-8"?>
<!-- Generator: Adobe Illustrator 26.0.2, SVG Export Plug-In . SVG Version: 6.00 Build 0)  -->
<svg version="1.1" id="Layer_1" xmlns="http://www.w3.org/2000/svg" xmlns:xlink="http://www.w3.org/1999/xlink" x="0px" y="0px"
	 viewBox="0 0 50 50" style="enable-background:new 0 0 50 50;" xml:space="preserve">
<style type="text/css">
	.st0{fill:#FCFCFC;}
</style>
<g>
	<path class="st0" d="M42.1,13.1c0-0.8-0.7-1.5-1.5-1.5h-6.8V8.8C33.8,3.9,29.8,0,25,0s-8.8,3.9-8.8,8.8v2.8H9.4
		c-0.8,0-1.5,0.7-1.5,1.5L6.4,45.5C6.3,48,8.3,50,10.8,50h28.3c2.5,0,4.4-2,4.4-4.5L42.1,13.1z M18.8,8.8c0-3.4,2.8-6.2,6.2-6.2
		s6.2,2.7,6.2,6.2v2.8H18.8L18.8,8.8z M17.5,19.3c-1.1,0-1.9-0.8-1.9-1.9c0-1.1,0.8-1.9,1.9-1.9c1.1,0,1.9,0.8,1.9,1.9
		C19.5,18.4,18.6,19.3,17.5,19.3z M32.5,19.3c-1.1,0-1.9-0.8-1.9-1.9c0-1.1,0.8-1.9,1.9-1.9c1.1,0,1.9,0.8,1.9,1.9
		C34.4,18.4,33.5,19.3,32.5,19.3z"/>
</g>
</svg>
