<?xml version="1.0" encoding="utf-8"?>
<!-- Generator: Adobe Illustrator 26.0.2, SVG Export Plug-In . SVG Version: 6.00 Build 0)  -->
<svg version="1.1" id="Livello_1" xmlns="http://www.w3.org/2000/svg" xmlns:xlink="http://www.w3.org/1999/xlink" x="0px" y="0px"
	 viewBox="0 0 50 50" style="enable-background:new 0 0 50 50;" xml:space="preserve">
<style type="text/css">
	.st0{fill:#FFFFFF;}
</style>
<path class="st0" d="M49.5,39.1c-1.6,0.6-3.3,1.2-4.9,1.6c-0.9,0.2-1.3,0.5-1.5,1.4c-0.5,2-0.1,2.3-2.8,1.8c-3-0.6-5.6,0-8.2,1.9
	c-1.3,1-2.8,1.8-4.3,2.3c-2.6,0.8-5.2,0.6-7.6-0.8c-0.8-0.4-1.6-0.9-2.3-1.5c-2.5-2.1-5.4-2.5-8.5-1.8c-1.8,0.4-1.9,0.3-2.2-1.5
	c-0.2-1.2-0.6-1.8-1.9-1.9c-1.2-0.1-2.3-0.5-3.4-0.9c-0.6-0.2-1-0.5-1.5-0.9c-0.7-0.6-0.5-1.2,0.4-1.5c5.1-1.2,7.5-3.9,9.6-8.5
	c0.7-1.4,0.5-2.2-0.9-2.9c-0.5-0.2-1.3-0.6-1.8-0.8c-0.7-0.3-1.2-0.4-1.8-0.8c-1.3-0.7-1.5-2-0.4-3c1.5-1.4,2.9-0.2,4.6,0
	c1.5,0.2,1.8-0.2,1.7-1.7c-0.1-1.1-0.1-2.2-0.2-3.6c-0.1-2.6-0.1-5.5,1.5-8.2c2.4-4,5.9-6,10.4-6.4c2.3-0.2,4.5,0,6.8,0.7
	c3.9,1.4,8.3,5.5,8.3,11.5c0,2.1-0.1,4.3-0.2,6.5c-0.1,0.8,0.3,1.2,1,1.1c1.5-0.1,3.1-0.9,4.6-0.4c1.3,0.4,2,2.3,0.8,3.3
	c-0.7,0.5-1.5,0.9-2.2,1.2c-0.7,0.4-1.6,0.6-2.3,1c-1.2,0.6-1.2,1.8-0.7,3c2,4.6,4.5,6.8,9.6,8c0.4,0.1,0.9,0.4,0.9,0.6
	C50,38.4,49.8,39,49.5,39.1z"/>
</svg>
