<?xml version="1.0" encoding="utf-8"?>
<!-- Generator: Adobe Illustrator 26.0.2, SVG Export Plug-In . SVG Version: 6.00 Build 0)  -->
<svg version="1.1" id="Livello_1" xmlns="http://www.w3.org/2000/svg" xmlns:xlink="http://www.w3.org/1999/xlink" x="0px" y="0px"
	 viewBox="0 0 50 50" style="enable-background:new 0 0 50 50;" xml:space="preserve">
<style type="text/css">
	.st0{fill:#FFFFFF;}
</style>
<path class="st0" d="M48.1,12.1c-1.1,0.9-2.9,1.8-2.9,1.8s1.1,5.9-1.8,12.8s-6.3,11.3-15.1,16.1s-14.6,3.9-18.6,3.1
	c-4.1-0.9-6.6-2-9.7-4.4c0,0,5.3-0.3,7.6-1.2c2.9-1.1,6.7-3.7,6.7-3.7S12,36.1,9,34.4c-3-1.8-4-4.8-4-4.8l4.6-0.4c0,0-3.1-1.1-6.1-4
	c-3-3-2.4-6.4-2.4-6.4s1.1,0.6,2.1,0.9c1.1,0.3,2.7,0,2.7,0s-3.9-2.2-4.5-6.9c-0.6-4.6,1.1-7,1.1-7s4.6,5.1,9.3,7.6
	c5.2,2.9,12.7,3.3,12.7,3.3S23.8,6.3,32.1,4c7-1.9,10.3,2.9,10.3,2.9s1.4,0,2.9-0.4c1.5-0.4,3.6-1.5,3.6-1.5s0,0.7-0.4,1.6
	c-0.4,0.9-1.4,1.8-1.8,2.2c-0.4,0.4-1.9,1.4-1.9,1.4s1.1,0.3,2.2,0.1c1.2-0.1,3.1-0.6,3.1-0.6S49.1,11.1,48.1,12.1z"/>
</svg>
